HIERARCHY
ROOT Hips
{
  OFFSET 0 0 0
  CHANNELS 6 Xposition Yposition Zposition Zrotation Yrotation Xrotation
  JOINT LeftThigh
  {
    OFFSET 8.409438 0 -5.917753
    CHANNELS 3 Zrotation Yrotation Xrotation
    JOINT LeftLeg
    {
      OFFSET 0 0 -42.358652
      CHANNELS 3 Zrotation Yrotation Xrotation
      JOINT LeftFoot
      {
        OFFSET 0 0 -39.357303
        CHANNELS 3 Zrotation Yrotation Xrotation
      }
    }
  }
  JOINT RightThigh
  {
    OFFSET -8.409438 0 -5.917753
    CHANNELS 3 Zrotation Yrotation Xrotation
    JOINT RightLeg
    {
      OFFSET 0 0 -42.358652
      CHANNELS 3 Zrotation Yrotation Xrotation
      JOINT RightFoot
      {
        OFFSET 0 0 -39.357303
        CHANNELS 3 Zrotation Yrotation Xrotation
      }
    }
  }
  JOINT SpineLow
  {
    OFFSET 0 0 4.719101
    CHANNELS 3 Zrotation Yrotation Xrotation
    JOINT SpineMid
    {
      OFFSET 0 0 12.899191
      CHANNELS 3 Zrotation Yrotation Xrotation
      JOINT Chest
      {
        OFFSET 0 0 12.899191
        CHANNELS 3 Zrotation Yrotation Xrotation
        JOINT LeftShoulder
        {
          OFFSET 7.550562 1.41573 9.438202
          CHANNELS 3 Zrotation Yrotation Xrotation
          JOINT LeftArm
          {
            OFFSET 9.155056 0 4.247191
            CHANNELS 3 Zrotation Yrotation Xrotation
            JOINT LeftForearm
            {
              OFFSET 0 0 25.771955
              CHANNELS 3 Zrotation Yrotation Xrotation
              JOINT LeftHand
              {
                OFFSET 0 0 25.197169
                CHANNELS 3 Zrotation Yrotation Xrotation
              }
            }
          }
        }
        JOINT RightShoulder
        {
          OFFSET -7.550562 1.41573 9.438202
          CHANNELS 3 Zrotation Yrotation Xrotation
          JOINT RightArm
          {
            OFFSET -9.155056 0 4.247191
            CHANNELS 3 Zrotation Yrotation Xrotation
            JOINT RightForearm
            {
              OFFSET 0 0 -25.771955
              CHANNELS 3 Zrotation Yrotation Xrotation
              JOINT RightHand
              {
                OFFSET 0 0 -25.197169
                CHANNELS 3 Zrotation Yrotation Xrotation
              }
            }
          }
        }
        JOINT Neck
        {
          OFFSET 0 0 15.101124
          CHANNELS 3 Zrotation Yrotation Xrotation
          JOINT Head
          {
            OFFSET 0 0 11.325843
            CHANNELS 3 Zrotation Yrotation Xrotation
            End Site
            {
              OFFSET 0 0 14.157303
            }
          }
        }
      }
    }
  }
}
MOTION
Frames: 7
Frame Time: 0.0
0.0  93.25843  0.0  -3.340791  1.294298  -109.586531  10.099475  -6.223932  -2.362588  -12.212234  -1.960869  15.506799  -2.398285  1.177875  1.326571  12.721088  -24.472728  -66.749524  25.20216  29.376792  96.815603  6.497611  7.399053  8.169877  2.135042  -1.840499  2.211004  5.672668  -5.216902  5.886687  5.672668  -5.216902  5.886687  -22.783167  23.713568  7.564402  113.320068  41.074722  -167.095641  -39.000655  12.394668  73.79974  68.704472  -12.993785  3.911741  4.482023  -12.168856  21.145449  82.705917  59.85975  18.443824  -22.18483  -33.669842  -105.73524  59.443305  0.978926  -11.206871  -7.395876  3.683857  12.562803  -5.623632  2.612642  9.465106  
0.0  93.25843  0.0  -3.76992  1.958434  -110.543538  10.217482  -6.80344  -1.34546  -13.114294  -1.571123  15.5747  -2.422168  1.136423  1.273523  13.942722  -25.315726  -71.280932  25.564117  29.821645  96.47108  6.526225  7.361389  7.974703  1.941253  -2.007957  2.254911  5.124935  -5.660301  6.011074  5.124935  -5.6603  6.011074  -22.332344  24.762378  7.996626  114.158504  41.198425  -166.61873  -39.237601  13.003631  73.710009  69.075657  -13.029307  4.069074  4.355308  -11.46103  21.510258  82.527566  59.440047  18.495811  -21.341657  -33.985326  -106.275903  59.370888  1.007975  -11.172507  -7.241824  4.248614  12.955372  -5.522033  3.035105  9.764089  
0.0  93.25843  0.0  -4.036376  2.50372  -111.815551  9.476962  -7.049032  -0.174438  -12.801373  -1.443958  16.152897  -2.519599  1.053747  1.187715  14.95093  -25.988157  -75.390141  25.836218  30.265196  95.71291  6.41448  7.260615  7.710316  1.820651  -2.174935  2.293833  4.777265  -6.107999  6.117829  4.777265  -6.107999  6.117829  -22.02002  25.921525  8.729195  115.030521  41.419982  -166.095857  -39.425287  13.588556  73.641582  68.987019  -13.059735  3.972275  3.712632  -10.706456  22.198864  82.745806  59.096729  18.747098  -20.936052  -34.098102  -106.591329  59.395147  1.022572  -11.097055  -7.182639  4.815205  13.546284  -5.493964  3.454839  10.212064  
0.0  93.25843  0.0  -4.270616  2.933619  -113.33171  8.814188  -7.49147  1.365327  -12.715327  -1.128295  16.427456  -2.470434  0.946481  1.155965  15.69614  -26.698211  -78.834484  25.916773  30.882141  94.179942  6.154859  7.066486  7.293339  1.700737  -2.338909  2.330526  4.431294  -6.547036  6.22048  4.431294  -6.547036  6.22048  -21.659804  27.071127  9.587616  116.022527  41.588341  -165.529493  -39.678989  14.125869  73.539792  68.731725  -13.148745  3.802462  3.210837  -10.083205  23.301931  83.330612  58.932737  19.350983  -21.117347  -33.93181  -106.716976  59.407702  0.971566  -11.053179  -7.201215  5.361237  14.184838  -5.525261  3.856975  10.695893  
0.0  93.25843  0.0  -4.366379  3.990794  -114.629995  7.736284  -7.577882  2.814776  -12.59584  -0.77811  16.620861  -2.567583  0.849323  1.106015  15.768156  -27.012182  -81.824454  25.742848  31.740299  91.679776  5.664184  6.753808  6.725478  1.446678  -2.411292  2.393034  3.722586  -6.724454  6.414181  3.722586  -6.724454  6.414181  -20.766334  27.855536  10.191677  116.585171  41.688745  -165.027043  -40.0716  14.697299  73.427899  68.663797  -13.197118  3.672787  3.103537  -9.57088  24.099425  84.08364  58.943362  20.0305  -21.52827  -33.672913  -106.734277  59.380117  0.880964  -11.107132  -6.897582  5.813051  14.668519  -5.312332  4.19785  11.059344  
0.0  93.25843  0.0  -4.5718  4.174987  -116.156382  7.087044  -7.839243  4.363058  -12.156929  -0.740185  16.898979  -2.690448  0.873084  1.077425  16.47686  -27.793042  -84.224531  25.15339  32.867368  88.301132  4.986225  6.304496  6.057592  1.247525  -2.571765  2.505847  3.149927  -7.148524  6.738528  3.149927  -7.148524  6.738528  -19.859191  28.875217  10.562724  117.237672  41.745164  -164.585097  -40.584881  15.142198  73.256772  68.7057  -13.203929  3.636951  3.457018  -8.874395  24.926103  84.767496  58.923679  20.679566  -21.991963  -33.383555  -106.716385  59.401746  0.815586  -11.201563  -6.545378  6.417665  15.03739  -5.066044  4.656322  11.336673  
0.0  93.25843  0.0  -4.713305  4.235954  -117.512037  6.988045  -8.326131  5.87777  -12.048643  -0.554313  16.96862  -2.918797  0.897598  1.025314  17.218553  -28.532125  -86.178024  24.064507  33.988006  83.929046  3.955285  5.599009  5.558213  1.049254  -2.717  2.574383  2.58453  -7.527469  6.944698  2.58453  -7.52747  6.944699  -18.761029  29.878688  11.204031  117.744789  41.814557  -164.207235  -41.191963  15.505521  73.08661  68.835066  -13.079591  3.592354  4.210943  -8.452313  26.176892  85.10489  59.061219  21.060301  -22.496319  -33.022149  -106.580482  59.355593  0.750816  -11.352289  -6.002537  7.031102  15.572657  -4.679835  5.125085  11.735409  
